<svg width="203" height="60" viewBox="0 0 203 60" fill="none" xmlns="http://www.w3.org/2000/svg">
<g id="Frame 2">
<g id="Group 4">
<g id="Group 3">
<path id="Exclude" d="M47.6236 24.9348C50.3486 31.3798 47.8795 38.9886 41.649 42.5367C34.9302 46.3629 26.3816 44.0181 22.5553 37.2993C18.7291 30.5806 21.074 22.032 27.7927 18.2056C34.0228 14.6576 41.8262 16.4157 45.979 22.047C45.8294 21.8566 45.7541 21.7863 45.7541 21.7863L44.0162 22.776C44.0162 22.776 44.0312 22.7965 44.06 22.8331C40.4323 18.3275 33.9709 16.9888 28.7825 19.9436C23.0236 23.2233 21.0136 30.5507 24.2933 36.3096C27.5729 42.0685 34.9003 44.0783 40.6593 40.7988C45.8481 37.8438 47.9931 31.6032 45.9684 26.1842C45.9854 26.2283 45.9957 26.2519 45.9957 26.2519L47.7336 25.2621C47.7336 25.2621 47.7113 25.1613 47.6236 24.9348ZM47.3558 24.3265C47.2794 24.1697 47.1876 23.9915 47.0784 23.79C47.1736 23.9685 47.264 24.1486 47.3507 24.3294L45.6077 25.322C45.5111 25.1142 45.4079 24.9081 45.2983 24.7037L45.1485 24.4327C45.3204 24.7346 45.4722 25.0476 45.6009 25.3259L28.6985 34.9516C28.2186 35.2248 27.6079 35.0574 27.3346 34.5776C27.0614 34.0977 27.229 33.4871 27.7087 33.2137L44.6112 23.5879C44.7848 23.8406 44.9766 24.1309 45.1485 24.4327C44.9818 24.1401 44.8048 23.8571 44.618 23.5841L46.361 22.5914C46.4721 22.758 46.5807 22.9273 46.6855 23.1C46.5681 22.9037 46.4618 22.734 46.3661 22.5885L47.695 21.8317L48.6847 23.5697L47.3558 24.3265ZM44.6112 23.5879C44.3641 23.2283 44.15 22.9476 44.06 22.8331C44.2543 23.0744 44.4406 23.3247 44.618 23.5841L44.6112 23.5879ZM45.6077 25.322C45.7401 25.6066 45.8601 25.8943 45.9684 26.1842C45.9157 26.0479 45.7837 25.721 45.6009 25.3259L45.6077 25.322ZM46.361 22.5914C46.2374 22.4061 46.11 22.2247 45.979 22.047C46.0768 22.1714 46.2068 22.3465 46.3661 22.5885L46.361 22.5914ZM47.3558 24.3265C47.4825 24.5864 47.5665 24.7874 47.6236 24.9348C47.5378 24.7318 47.4469 24.5299 47.3507 24.3294L47.3558 24.3265ZM47.0784 23.79C47.0729 23.7796 47.0674 23.7693 47.0618 23.7589L46.8864 23.443C46.9561 23.5654 47.0195 23.6812 47.0784 23.79Z" fill="#D12128"/>
</g>
<path id="mpower" d="M53.1342 40.2499V20.6135H56.0489V23.6817H56.3046C56.7137 22.6334 57.3742 21.8195 58.2862 21.2399C59.1981 20.6519 60.2933 20.3578 61.5717 20.3578C62.8671 20.3578 63.9452 20.6519 64.806 21.2399C65.6754 21.8195 66.3529 22.6334 66.8387 23.6817H67.0433C67.5461 22.6675 68.3004 21.8621 69.306 21.2655C70.3117 20.6604 71.5177 20.3578 72.9239 20.3578C74.6796 20.3578 76.1157 20.9075 77.2322 22.007C78.3487 23.0979 78.9069 24.7982 78.9069 27.1078V40.2499H75.8898V27.1078C75.8898 25.659 75.4935 24.6235 74.7009 24.0013C73.9083 23.3791 72.9751 23.0681 71.9012 23.0681C70.5205 23.0681 69.4509 23.4857 68.6924 24.3209C67.9339 25.1476 67.5546 26.1959 67.5546 27.4658V40.2499H64.4864V26.801C64.4864 25.6845 64.1242 24.7854 63.3998 24.1036C62.6754 23.4132 61.7421 23.0681 60.6001 23.0681C59.816 23.0681 59.083 23.2769 58.4012 23.6945C57.7279 24.1121 57.1825 24.6916 56.7648 25.4331C56.3558 26.1661 56.1512 27.0141 56.1512 27.9772V40.2499H53.1342ZM84.4232 47.6135V20.6135H87.338V23.7328H87.696C87.9175 23.3919 88.2244 22.9573 88.6164 22.4289C89.017 21.8919 89.588 21.4147 90.3295 20.997C91.0795 20.5709 92.0937 20.3578 93.3721 20.3578C95.0255 20.3578 96.4829 20.7712 97.7443 21.5979C99.0056 22.4246 99.99 23.5965 100.697 25.1135C101.405 26.6306 101.758 28.4203 101.758 30.4828C101.758 32.5624 101.405 34.3649 100.697 35.8905C99.99 37.4075 99.0099 38.5837 97.757 39.4189C96.5042 40.2456 95.0596 40.659 93.4232 40.659C92.1619 40.659 91.1519 40.4502 90.3934 40.0325C89.6349 39.6064 89.0511 39.1249 88.642 38.5879C88.2329 38.0425 87.9175 37.5908 87.696 37.2328H87.4403V47.6135H84.4232ZM87.3891 30.4317C87.3891 31.9147 87.6065 33.2229 88.0411 34.3564C88.4758 35.4814 89.1107 36.3635 89.946 37.0027C90.7812 37.6334 91.8039 37.9487 93.0141 37.9487C94.2755 37.9487 95.3281 37.6164 96.1718 36.9516C97.0241 36.2783 97.6633 35.3749 98.0894 34.2414C98.5241 33.0993 98.7414 31.8294 98.7414 30.4317C98.7414 29.051 98.5283 27.8067 98.1022 26.6987C97.6846 25.5823 97.0497 24.7002 96.1974 24.0524C95.3536 23.3962 94.2925 23.0681 93.0141 23.0681C91.7869 23.0681 90.7556 23.3791 89.9204 24.0013C89.0852 24.6149 88.4545 25.4757 88.0283 26.5837C87.6022 27.6831 87.3891 28.9658 87.3891 30.4317ZM114.338 40.659C112.565 40.659 111.01 40.2371 109.672 39.3933C108.342 38.5496 107.302 37.3692 106.552 35.8522C105.811 34.3351 105.44 32.5624 105.44 30.534C105.44 28.4885 105.811 26.703 106.552 25.1774C107.302 23.6519 108.342 22.4672 109.672 21.6235C111.01 20.7797 112.565 20.3578 114.338 20.3578C116.111 20.3578 117.662 20.7797 118.991 21.6235C120.329 22.4672 121.369 23.6519 122.111 25.1774C122.861 26.703 123.236 28.4885 123.236 30.534C123.236 32.5624 122.861 34.3351 122.111 35.8522C121.369 37.3692 120.329 38.5496 118.991 39.3933C117.662 40.2371 116.111 40.659 114.338 40.659ZM114.338 37.9487C115.685 37.9487 116.793 37.6036 117.662 36.9132C118.531 36.2229 119.175 35.3152 119.592 34.1902C120.01 33.0652 120.219 31.8465 120.219 30.534C120.219 29.2215 120.01 27.9985 119.592 26.8649C119.175 25.7314 118.531 24.8152 117.662 24.1164C116.793 23.4175 115.685 23.0681 114.338 23.0681C112.991 23.0681 111.883 23.4175 111.014 24.1164C110.145 24.8152 109.501 25.7314 109.084 26.8649C108.666 27.9985 108.457 29.2215 108.457 30.534C108.457 31.8465 108.666 33.0652 109.084 34.1902C109.501 35.3152 110.145 36.2229 111.014 36.9132C111.883 37.6036 112.991 37.9487 114.338 37.9487ZM131.622 40.2499L125.639 20.6135H128.81L133.054 35.6476H133.258L137.452 20.6135H140.673L144.815 35.5965H145.02L149.264 20.6135H152.435L146.452 40.2499H143.486L139.19 25.1647H138.883L134.588 40.2499H131.622ZM163.988 40.659C162.096 40.659 160.464 40.2414 159.092 39.4061C157.728 38.5624 156.676 37.3862 155.934 35.8777C155.201 34.3607 154.835 32.5965 154.835 30.5851C154.835 28.5737 155.201 26.801 155.934 25.2669C156.676 23.7243 157.707 22.5226 159.028 21.6618C160.358 20.7925 161.909 20.3578 163.681 20.3578C164.704 20.3578 165.714 20.5283 166.711 20.8692C167.708 21.2101 168.616 21.7641 169.434 22.5311C170.252 23.2897 170.904 24.2953 171.39 25.5482C171.876 26.801 172.119 28.3436 172.119 30.176V31.4544H156.983V28.8465H169.051C169.051 27.7385 168.829 26.7499 168.386 25.8806C167.951 25.0112 167.329 24.3252 166.519 23.8223C165.718 23.3195 164.772 23.0681 163.681 23.0681C162.48 23.0681 161.44 23.3664 160.562 23.9629C159.693 24.551 159.024 25.3181 158.555 26.2641C158.086 27.2101 157.852 28.2243 157.852 29.3067V31.0453C157.852 32.5283 158.108 33.7854 158.619 34.8166C159.139 35.8394 159.859 36.6192 160.779 37.1561C161.7 37.6845 162.769 37.9487 163.988 37.9487C164.781 37.9487 165.497 37.8379 166.136 37.6164C166.784 37.3862 167.342 37.0453 167.811 36.5936C168.279 36.1334 168.642 35.5624 168.897 34.8806L171.812 35.6987C171.505 36.6874 170.99 37.5567 170.265 38.3067C169.541 39.0482 168.646 39.6277 167.581 40.0453C166.515 40.4544 165.318 40.659 163.988 40.659ZM176.708 40.2499V20.6135H179.623V23.5794H179.828C180.186 22.6078 180.833 21.8195 181.771 21.2144C182.708 20.6093 183.765 20.3067 184.941 20.3067C185.163 20.3067 185.44 20.311 185.772 20.3195C186.105 20.328 186.356 20.3408 186.527 20.3578V23.426C186.424 23.4004 186.19 23.3621 185.823 23.311C185.465 23.2513 185.086 23.2215 184.686 23.2215C183.731 23.2215 182.879 23.4218 182.129 23.8223C181.387 24.2144 180.799 24.7598 180.365 25.4587C179.938 26.149 179.725 26.9374 179.725 27.8237V40.2499H176.708Z" fill="#F6E8DD"/>
</g>
</g>
</svg>
