<svg width="40" height="39" viewBox="0 0 40 39" fill="none" xmlns="http://www.w3.org/2000/svg">
<path d="M31.9964 14.3997C34.7214 20.8446 32.2523 28.4534 26.0219 32.0016C19.3031 35.8277 10.7544 33.4829 6.92816 26.7642C3.10188 20.0454 5.44687 11.4968 12.1655 7.67046C18.3957 4.12246 26.199 5.88057 30.3519 11.5119C30.2022 11.3215 30.127 11.2511 30.127 11.2511L28.389 12.2408C28.389 12.2408 28.404 12.2614 28.4328 12.298C24.8051 7.79236 18.3438 6.45362 13.1553 9.4084C7.39644 12.6882 5.38644 20.0155 8.66609 25.7744C11.9458 31.5334 19.2732 33.5431 25.0321 30.2636C30.2209 27.3087 32.366 21.0681 30.3412 15.6491C30.3582 15.6931 30.3685 15.7167 30.3685 15.7167L32.1064 14.727C32.1064 14.727 32.0841 14.6262 31.9964 14.3997ZM31.7287 13.7913C31.6523 13.6345 31.5604 13.4563 31.4512 13.2548C31.5464 13.4334 31.6368 13.6134 31.7236 13.7942L29.9806 14.7869C29.8839 14.5791 29.7808 14.3729 29.6711 14.1685L29.5213 13.8976C29.6932 14.1995 29.845 14.5125 29.9738 14.7907L13.0713 24.4165C12.5914 24.6897 11.9808 24.5223 11.7075 24.0424C11.4343 23.5625 11.6018 22.9519 12.0816 22.6786L28.984 13.0528C29.1576 13.3054 29.3494 13.5957 29.5213 13.8976C29.3547 13.605 29.1776 13.322 28.9908 13.0489L30.7338 12.0563C30.8449 12.2229 30.9535 12.3922 31.0583 12.5649C30.9409 12.3685 30.8347 12.1989 30.7389 12.0534L32.0678 11.2966L33.0576 13.0345L31.7287 13.7913ZM28.984 13.0528C28.7369 12.6932 28.5228 12.4124 28.4328 12.298C28.6271 12.5393 28.8134 12.7896 28.9908 13.0489L28.984 13.0528ZM29.9806 14.7869C30.1129 15.0715 30.2329 15.3591 30.3412 15.6491C30.2885 15.5127 30.1566 15.1859 29.9738 14.7907L29.9806 14.7869ZM30.7338 12.0563C30.6103 11.871 30.4829 11.6895 30.3519 11.5119C30.4496 11.6362 30.5797 11.8113 30.7389 12.0534L30.7338 12.0563ZM31.7287 13.7913C31.8553 14.0513 31.9394 14.2522 31.9964 14.3997C31.9106 14.1966 31.8198 13.9948 31.7236 13.7942L31.7287 13.7913ZM31.4512 13.2548C31.4457 13.2445 31.4402 13.2341 31.4347 13.2238L31.2593 12.9079C31.329 13.0302 31.3923 13.1461 31.4512 13.2548Z" fill="#D12128"/>
</svg>
